<svg xmlns="http://www.w3.org/2000/svg" data-name="Layer 1" viewBox="0 0 512 512"><path fill="#4a4f60" d="m357.947 77.747 24.898 14.87-30.764 51.512-24.898-14.87zM184.817 129.26l-24.898 14.87-30.764-51.514 24.898-14.87zM236 42.5h40v40h-40z"/><rect width="56" height="30" x="350.087" y="57.303" fill="#676e87" rx="5" transform="rotate(30.846 378.087 72.303)"/><rect width="56" height="30" x="105.913" y="57.303" fill="#676e87" rx="5" transform="rotate(149.154 133.913 72.303)"/><path fill="#f66" d="M256 429.623a173.621 173.621 0 1 1 122.77-50.852A172.487 172.487 0 0 1 256 429.623Z"/><path fill="#fff" d="M399.62 256.001c0 2.5-.06 5-.19 7.48a143.618 143.618 0 0 1-135.94 135.95q-3.72.195-7.49.19-3.765 0-7.49-.19a143.618 143.618 0 0 1-135.94-135.95c-.13-2.48-.19-4.98-.19-7.48s.06-5 .19-7.48a143.615 143.615 0 0 1 135.97-135.95q3.705-.195 7.46-.19 3.75 0 7.46.19a143.615 143.615 0 0 1 135.97 135.95c.13 2.48.19 4.98.19 7.48Z"/><rect width="86" height="35" x="213" y="7.5" fill="#676e87" rx="10"/><path fill="#272a33" d="M220.98 292.592c14.397 0 26.052-6.741 26.052-24.91v-2.17c0-9.713-4.913-15.082-11.655-17.71 5.484-2.63 9.14-9.6 9.14-19.083 0-15.082-9.597-20.339-22.966-20.339-18.853 0-23.995 11.883-23.995 19.31 0 4.343.914 5.6 6.284 5.6 4.342 0 5.714-1.943 5.714-4.913 0-4.686 2.627-9.37 11.883-9.37 7.427 0 11.426 3.428 11.426 11.769 0 10.398-4.913 12.57-11.883 12.57-2.857 0-3.885 2.398-3.885 4.912 0 2.4 1.028 4.799 3.885 4.799 8.341 0 13.94 3.314 13.94 12.455v2.17c0 9.942-4.456 14.17-13.826 14.17-9.255 0-13.483-4.914-13.483-9.94 0-3.086-1.257-4.572-6.284-4.572-4.114 0-5.599 1.143-5.599 5.142 0 9.027 7.427 20.11 25.252 20.11Zm-71.84 70.27A151.125 151.125 0 1 0 104.877 256a150.138 150.138 0 0 0 44.263 106.861Zm10.607-203.116a135.13 135.13 0 0 1 88.753-39.66v11.475a7.5 7.5 0 0 0 15 0v-11.476A136.117 136.117 0 0 1 391.914 248.5H380.44a7.5 7.5 0 1 0 0 15h11.475A136.115 136.115 0 0 1 263.5 391.915v-11.476a7.5 7.5 0 0 0-15 0v11.476A136.113 136.113 0 0 1 120.086 263.5h11.474a7.5 7.5 0 0 0 0-15h-11.474a135.129 135.129 0 0 1 39.661-88.754ZM282.68 292.592c14.397 0 25.709-6.97 25.709-25.48V233.86c0-18.51-11.312-25.48-25.71-25.48-14.51 0-25.594 6.97-25.594 25.48v33.25c0 18.511 11.083 25.48 25.595 25.48Zm-13.483-58.731c0-10.055 4.913-14.74 13.483-14.74 8.456 0 13.597 4.685 13.597 14.74v33.25c0 10.055-5.141 14.74-13.597 14.74-8.57 0-13.483-4.685-13.483-14.74Zm201.55-87.52a7.5 7.5 0 0 0 13.352-6.836 254.592 254.592 0 0 0-7.256-13.19 7.5 7.5 0 1 0-12.922 7.617 239.864 239.864 0 0 1 6.826 12.409Zm28.561 58.18a7.5 7.5 0 0 0-6.068 8.699c.823 4.623 1.52 9.337 2.072 14.011a7.5 7.5 0 0 0 7.439 6.622 7.583 7.583 0 0 0 .889-.052 7.5 7.5 0 0 0 6.569-8.327 256.789 256.789 0 0 0-2.201-14.885 7.498 7.498 0 0 0-8.7-6.068Zm-17.181-32.258a239.24 239.24 0 0 1 4.513 13.423 7.5 7.5 0 1 0 14.353-4.356 253.526 253.526 0 0 0-4.798-14.268 7.5 7.5 0 1 0-14.068 5.2Zm-271.79 320.446a240.287 240.287 0 0 1-13.831-3.063 7.5 7.5 0 1 0-3.676 14.543 255.614 255.614 0 0 0 14.699 3.254 7.5 7.5 0 0 0 2.808-14.734Zm199.288-50.99a243.662 243.662 0 0 1-11.164 8.73 7.5 7.5 0 1 0 8.89 12.082 257.956 257.956 0 0 0 11.856-9.273 7.5 7.5 0 0 0-9.582-11.54Zm50.435-340.38a253.798 253.798 0 0 0-4.774-6.08 7.5 7.5 0 1 0-11.654 9.443 236.888 236.888 0 0 1 4.489 5.719 7.5 7.5 0 0 0 11.94-9.082Zm-9.647 309.669a7.5 7.5 0 0 0-10.572.851 246.962 246.962 0 0 1-9.492 10.524 7.5 7.5 0 0 0 10.845 10.363 262.588 262.588 0 0 0 10.07-11.166 7.5 7.5 0 0 0-.851-10.572Zm24.244-36.454a7.504 7.504 0 0 0-10.26 2.693 240.166 240.166 0 0 1-7.5 12.01 7.5 7.5 0 1 0 12.483 8.32 255.513 255.513 0 0 0 7.97-12.764 7.502 7.502 0 0 0-2.693-10.26Zm29.843-126.55a7.5 7.5 0 0 0-7.5 7.5V256c0 4.56-.128 9.168-.38 13.694a7.5 7.5 0 0 0 7.071 7.906c.142.007.284.011.424.011a7.5 7.5 0 0 0 7.482-7.083c.267-4.802.403-9.69.403-14.528v-.496a7.5 7.5 0 0 0-7.5-7.5Zm-2.421 43.738a7.486 7.486 0 0 0-8.675 6.103 240.682 240.682 0 0 1-2.84 13.882 7.5 7.5 0 1 0 14.602 3.437c1.144-4.86 2.16-9.822 3.016-14.747a7.5 7.5 0 0 0-6.103-8.675Zm-10.01 42.635a7.497 7.497 0 0 0-9.619 4.472A239.252 239.252 0 0 1 477.198 352a7.5 7.5 0 1 0 13.76 5.975 255.383 255.383 0 0 0 5.582-13.98 7.5 7.5 0 0 0-4.472-9.618Zm-239.471 162.6c-4.71-.066-9.478-.268-14.17-.603a7.5 7.5 0 1 0-1.07 14.961 262.394 262.394 0 0 0 15.138.64 7.5 7.5 0 0 0 .102-14.998Zm-122.652-73.142-44.258 6.542a7.55 7.55 0 0 0-.923.175c-.02.005-.04.012-.06.016a7.564 7.564 0 0 0-.644.199c-.037.013-.072.028-.108.042-.191.071-.38.15-.567.238-.045.021-.089.046-.134.068a7.5 7.5 0 0 0-.506.275c-.052.031-.102.066-.153.098a7.529 7.529 0 0 0-.449.304c-.059.044-.115.09-.172.136a7.486 7.486 0 0 0-.389.323c-.066.06-.127.123-.19.185-.092.088-.187.171-.275.265l-.058.07c-.054.058-.103.122-.155.182-.11.13-.222.26-.323.395-.013.017-.024.036-.036.053a7.449 7.449 0 0 0-1.209 2.544c-.007.026-.01.052-.016.078-.051.207-.096.415-.13.624-.022.143-.032.289-.047.433-.01.097-.024.193-.03.29-.008.126-.004.255-.005.383-.001.12-.007.237-.002.356.004.11.018.22.027.33.012.139.021.278.04.417.003.021.003.043.007.064l6.569 44.442a7.5 7.5 0 0 0 14.839-2.193l-4.702-31.805a7.479 7.479 0 0 0 3.737-5.885l32.515-4.806a7.5 7.5 0 1 0-2.193-14.838Zm1.47 38.58a240.97 240.97 0 0 1-11.889-7.695 7.5 7.5 0 1 0-8.518 12.345 255.356 255.356 0 0 0 12.631 8.177 7.5 7.5 0 0 0 7.775-12.828Zm38.101 18.677a237.583 237.583 0 0 1-13.062-5.466 7.5 7.5 0 0 0-6.202 13.658 253.257 253.257 0 0 0 13.889 5.812 7.5 7.5 0 1 0 5.375-14.004Zm166.567 2.35a239.88 239.88 0 0 1-13.494 4.294 7.5 7.5 0 1 0 4.123 14.422c4.81-1.375 9.635-2.91 14.342-4.563a7.5 7.5 0 0 0-4.971-14.153Zm38.618-17.578a238.953 238.953 0 0 1-12.52 6.625 7.5 7.5 0 1 0 6.622 13.461 255.922 255.922 0 0 0 13.304-7.04 7.5 7.5 0 0 0-7.406-13.046ZM74.877 256a181.123 181.123 0 1 0 309.196-128.074q-4.24-4.24-8.713-8.153l10.077-16.873.86.513a12.508 12.508 0 0 0 17.141-4.322l10.256-17.173a12.517 12.517 0 0 0-4.324-17.14l-39.493-23.586a12.517 12.517 0 0 0-17.142 4.324l-10.254 17.17a12.5 12.5 0 0 0 4.323 17.142l.861.515-8.7 14.566A179.18 179.18 0 0 0 283.5 76.945V50h5.5a17.52 17.52 0 0 0 17.5-17.5v-15A17.52 17.52 0 0 0 289 0h-66a17.52 17.52 0 0 0-17.5 17.5v15A17.52 17.52 0 0 0 223 50h5.5v26.945a179.186 179.186 0 0 0-55.465 17.964l-8.701-14.566.862-.515a12.5 12.5 0 0 0 4.323-17.141l-10.255-17.171a12.502 12.502 0 0 0-17.141-4.324L102.629 64.78a12.514 12.514 0 0 0-4.322 17.14l10.255 17.172a12.412 12.412 0 0 0 7.676 5.71 12.42 12.42 0 0 0 9.465-1.389v.001l.86-.514 10.077 16.874q-4.463 3.923-8.713 8.153A179.942 179.942 0 0 0 74.877 256ZM364.332 55.353l35.201 21.022-7.691 12.878L356.64 68.23Zm-3.788 32.68 12.014 7.176-8.978 15.034q-5.652-4.19-11.583-7.902ZM223 35a2.503 2.503 0 0 1-2.5-2.5v-15A2.503 2.503 0 0 1 223 15h66a2.502 2.502 0 0 1 2.5 2.5v15A2.502 2.502 0 0 1 289 35Zm45.5 15v25.309q-6.213-.422-12.5-.432-6.287 0-12.5.432V50Zm-108.497 52.34q-5.924 3.717-11.583 7.903L139.44 95.21l12.015-7.176Zm-39.845-13.087-7.69-12.878 35.2-21.022 7.69 12.878Zm18.376 49.28A166.125 166.125 0 1 1 89.877 256a165.034 165.034 0 0 1 48.657-117.467ZM294.956 493.89a242.593 242.593 0 0 1-14.041 1.848 7.5 7.5 0 0 0 .752 14.962 7.594 7.594 0 0 0 .77-.04c4.973-.507 9.99-1.167 14.912-1.962a7.5 7.5 0 1 0-2.393-14.808Z"/></svg>