<svg xmlns="http://www.w3.org/2000/svg" data-name="Layer 1" viewBox="0 0 512 512"><rect width="117.585" height="109.381" x="109.399" y="99.045" fill="#ffe966" rx="10"/><path fill="#ffe236" d="M216.984 99.045h-30a10 10 0 0 1 10 10v89.382a10 10 0 0 1-10 10h30a10 10 0 0 0 10-10v-89.382a10 10 0 0 0-10-10Z"/><path fill="#3b3f4d" d="M215.739 364.14a48.815 48.815 0 0 1-97.63 0s-.637-8.982 2.839-8.765 94.79-1.086 94.79-1.086Z"/><path fill="#313440" d="M200.739 354.499v9.641a48.825 48.825 0 0 1-41.315 48.24 48.847 48.847 0 0 0 56.315-48.24v-9.85s-6.012.085-15 .209Z"/><path fill="#fff" d="M185.889 366.235c-1.308 8.06-8.592 16.798-18.965 16.712-10.5-.087-18.676-9.172-18.806-18.807a18.805 18.805 0 0 1 9.97-16.584c9.396-4.936 21.554-.395 26.063 7.82a17.078 17.078 0 0 1 1.738 10.859Z"/><path fill="#f66" d="m370.305 356.058-286.312 3.724c-16.758-28.785 7.803-87.47 49.404-111.512 21.856-12.63 44.17-13.246 56.72-12.502h76.644c-15.999 24.358-14.331 55.442 3.103 75.403 14.066 16.105 36.73 23.079 56.984 18.618 48.554-10.692 45.522-66.837 37.491-104.764-.605-2.857-9.185-33.577-13.493-46.181l32.169 7.314c11.724 32.62 38.894 117.906 38.894 117.906Z"/><path fill="#3b3f4d" d="M474.05 330.736a48.819 48.819 0 1 1-81.548 49.397"/><path fill="#313440" d="m474.05 330.736-10.07 6.1a48.798 48.798 0 0 1-32.705 75.833 48.808 48.808 0 0 0 42.774-81.933Z"/><path fill="#fff" d="M447.757 347.935a18.81 18.81 0 1 1-27.829 16.787 21.462 21.462 0 0 1 27.83-16.787Z"/><path fill="#ff4e4e" d="M83.997 359.784c11.48-53.165 61.105-83.157 101.465-72.816 29.243 7.492 52.32 35.825 57.703 70.765ZM400.611 304.79l2.974-1.77a59.98 59.98 0 0 1 82.218 20.874l-106.065 63.114a59.98 59.98 0 0 1 20.873-82.218Z"/><path fill="#ff3636" d="M485.802 323.894a59.994 59.994 0 0 0-66.552-27.4 59.962 59.962 0 0 1 25.5 13.804 13.52 13.52 0 0 1-2.312 21.548l-68.836 40.962a60.046 60.046 0 0 0 6.136 14.2l106.064-63.114Z"/><path fill="#ff4e4e" d="M367.246 142.066h27.365a3 3 0 0 1 3 3v38.092a3 3 0 0 1-3 3h-27.365a22.046 22.046 0 0 1-22.046-22.046 22.046 22.046 0 0 1 22.046-22.046Z"/><path fill="#ff3636" d="M394.611 142.066h-15a3 3 0 0 1 3 3v38.092a3 3 0 0 1-3 3h15a3 3 0 0 0 3-3v-38.092a3 3 0 0 0-3-3Z"/><rect width="140.855" height="27.345" x="137.656" y="208.427" fill="#3b3f4d" rx="13.673"/><path fill="#313440" d="M264.839 208.427h-30a13.673 13.673 0 1 1 0 27.345h30a13.673 13.673 0 1 0 0-27.345Z"/><path fill="#272a33" d="M22.5 161.235h56.9a7.5 7.5 0 0 0 0-15H22.5a7.5 7.5 0 1 0 0 15Zm15-30h41.9a7.5 7.5 0 1 0 0-15H37.5a7.5 7.5 0 0 0 0 15Zm-30 60h71.9a7.5 7.5 0 0 0 0-15H7.5a7.5 7.5 0 1 0 0 15Zm497 215.265h-28.323a55.883 55.883 0 0 0 18.064-32.544 56.61 56.61 0 0 0-8.888-41.067l4.285-2.55a7.5 7.5 0 0 0 2.61-10.28 67.579 67.579 0 0 0-68.008-32.213c-6.395-15.217-12.978-36.91-19.354-57.935-3.717-12.256-7.53-24.827-11.346-36.253h4.071a7.5 7.5 0 0 0 7.5-7.5v-44.092a7.5 7.5 0 0 0-7.5-7.5h-30.365a29.597 29.597 0 0 0-28.579 22.046h-28.696a7.5 7.5 0 0 0 0 15h28.696a29.49 29.49 0 0 0 5.96 11.482 7.53 7.53 0 0 0 .312 1.296c4.179 12.228 11.535 39.695 12.063 42.188 8.204 38.745 9.352 86.831-31.768 95.886a51.976 51.976 0 0 1-49.721-16.227c-15.472-17.715-16.5-44.98-2.505-66.317a21.154 21.154 0 0 0-11.386-38.994h-27.337a17.478 17.478 0 0 0 .2-2.5v-89.381a17.52 17.52 0 0 0-17.5-17.5h-97.586a17.52 17.52 0 0 0-17.5 17.5v89.381a17.52 17.52 0 0 0 17.5 17.5h11.68a21.078 21.078 0 0 0 6.149 21.922 96.342 96.342 0 0 0-7.585 3.928c-25.698 14.852-47.442 43.78-55.394 73.698-4.952 18.63-3.852 35.556 3.074 47.731l.032.06c.054.095.102.196.157.29.025.044.058.082.084.125q.177.291.38.565c.04.054.077.112.118.165a7.53 7.53 0 0 0 .57.642c.056.057.115.11.173.164q.244.233.51.444c.061.048.121.097.184.143a7.472 7.472 0 0 0 .703.467l.027.017a7.451 7.451 0 0 0 .816.401c.058.025.117.044.175.067q.324.127.664.226c.086.024.171.048.258.07.08.02.158.046.24.064.14.03.28.045.42.067.08.013.159.029.24.039a7.53 7.53 0 0 0 .93.064c.014 0 .028-.003.042-.004h.045l26.59-.346a56.214 56.214 0 0 0 19.181 39.565H7.5a7.5 7.5 0 0 0 0 15h497a7.5 7.5 0 1 0 0-15Zm-70.33-104.403a52.594 52.594 0 0 1 40.892 19.46l-3.588 2.136a7.456 7.456 0 0 0-2.349 1.397l-86.317 51.364a52.56 52.56 0 0 1 21.638-65.219l2.974-1.77a52.155 52.155 0 0 1 26.75-7.368Zm15.71 64.255a11.305 11.305 0 0 1-22.117.806l18.6-11.068a11.315 11.315 0 0 1 3.517 10.262Zm-97.18-202.24a14.563 14.563 0 0 1 14.546-14.546h22.865v29.092h-22.865a14.563 14.563 0 0 1-14.546-14.546Zm-91.078 51.814a6.17 6.17 0 0 1 .077 12.342h-71.364a122.202 122.202 0 0 0-13.967.004h-25.039a6.173 6.173 0 1 1 0-12.346Zm-142.223-15a2.503 2.503 0 0 1-2.5-2.5v-89.381a2.503 2.503 0 0 1 2.5-2.5h97.585a2.503 2.503 0 0 1 2.5 2.5v89.381a2.503 2.503 0 0 1-2.5 2.5Zm-30.654 118.4c6.98-26.261 25.98-51.604 48.404-64.563a89.848 89.848 0 0 1 39.59-11.491h77.491c-10.66 24.74-7.146 53.218 9.986 72.833a67.144 67.144 0 0 0 50.255 22.52 65.117 65.117 0 0 0 13.99-1.511c41.453-9.13 56.8-49.488 43.216-113.642-.511-2.413-4.43-17.148-8.225-30.066a29.649 29.649 0 0 0 3.794.252h10.456c4.274 12.399 8.615 26.71 12.83 40.606 6.228 20.542 12.653 41.711 19.09 57.486a67.62 67.62 0 0 0-9.872 4.825l-2.974 1.77a67.403 67.403 0 0 0-32.493 50.29L249.37 350.13c-7.574-34.811-31.88-62.7-62.046-70.428-20.547-5.264-43.887-1.137-64.04 11.32a102.696 102.696 0 0 0-36.746 39.88 78.794 78.794 0 0 1 2.207-11.575Zm5.076 32.827c6.587-20.245 19.85-37.555 37.35-48.372 16.703-10.325 35.813-13.805 52.43-9.549 23.886 6.12 43.376 28.15 50.417 56.098Zm84.234 13.906a11.299 11.299 0 0 1-22.218.29Zm-11.13 39.395A41.362 41.362 0 0 1 125.7 366.74l15.032-.195a26.3 26.3 0 0 0 52.436-.682l15.032-.196a41.357 41.357 0 0 1-41.276 39.787Zm37.044 1.046a56.212 56.212 0 0 0 19.236-41.028l19.509-.254a7.494 7.494 0 0 0 1.013-.013l120.494-1.567a67.056 67.056 0 0 0 9.072 27.205 7.5 7.5 0 0 0 10.28 2.61l5.176-3.08a56.324 56.324 0 0 0 12.568 16.127Zm258.625-8.33a41.312 41.312 0 0 1-60.925-15.485l12.973-7.72a26.297 26.297 0 0 0 19.649 15.405 26.605 26.605 0 0 0 4.5.385 26.302 26.302 0 0 0 20.692-42.472l12.963-7.714a41.303 41.303 0 0 1-9.852 57.602Z"/></svg>