<svg xmlns="http://www.w3.org/2000/svg" data-name="Layer 1" viewBox="0 0 512 512"><circle cx="256" cy="256" r="248.5" fill="#d9f0ff"/><path fill="#b3e0ff" d="M256 7.5c-2.51 0-5.008.049-7.5.123 133.772 3.966 241 113.644 241 248.377s-107.228 244.41-241 248.377c2.492.074 4.99.123 7.5.123 137.243 0 248.5-111.257 248.5-248.5S393.243 7.5 256 7.5Z"/><path fill="#fff" d="M256 474.5a218.5 218.5 0 0 1-154.503-373.003 218.5 218.5 0 0 1 309.006 309.006A217.068 217.068 0 0 1 256 474.5Z"/><path fill="#eee" d="M410.503 101.497A217.068 217.068 0 0 0 256 37.5c-5.029 0-10.03.18-15 .516a218.5 218.5 0 0 1 139.503 372.487A216.873 216.873 0 0 1 241 473.984c4.97.335 9.971.516 15 .516a218.5 218.5 0 0 0 154.503-373.003Z"/><path fill="#ffc570" d="m214.366 94.748 3.281-.077a10.448 10.448 0 0 1 10.69 10.2l3.15 134.678a10.448 10.448 0 0 1-10.2 10.69l-3.282.076a77.805 77.805 0 0 1-79.603-75.964 77.805 77.805 0 0 1 75.964-79.603Z"/><path fill="#ffc97a" d="m262.599 81.59 3.281-.078a10.448 10.448 0 0 1 10.69 10.2l3.15 134.678a10.448 10.448 0 0 1-10.2 10.69l-3.283.076a77.805 77.805 0 0 1-79.602-75.964 77.805 77.805 0 0 1 75.964-79.603Z"/><path fill="#ffc97a" d="m262.599 81.59 3.281-.078a10.448 10.448 0 0 1 10.69 10.2l3.15 134.678a10.448 10.448 0 0 1-10.2 10.69l-3.283.076a77.805 77.805 0 0 1-79.602-75.964 77.805 77.805 0 0 1 75.964-79.603Z"/><path fill="#ffc166" d="M276.57 91.713a10.448 10.448 0 0 0-10.69-10.2l-3.281.076a77.932 77.932 0 0 0-19.213 2.86 10.41 10.41 0 0 1 3.183 7.264l3.15 134.677a10.422 10.422 0 0 1-4.052 8.494 77.849 77.849 0 0 0 20.57 2.272l3.282-.076a10.448 10.448 0 0 0 10.2-10.69Z"/><circle cx="366.005" cy="191.658" r="57.486" fill="#eee"/><path fill="#ff9670" d="M366.005 219.145a27.486 27.486 0 1 1 27.486-27.487 27.517 27.517 0 0 1-27.486 27.487Z"/><path fill="#ff7c4e" d="M366.005 164.173a27.35 27.35 0 0 0-9.57 1.721 27.483 27.483 0 0 1 0 51.53 27.485 27.485 0 1 0 9.57-53.251Z"/><circle cx="354" cy="336" r="57.486" fill="#eee"/><circle cx="212.387" cy="377" r="57.486" fill="#eee"/><path fill="#bebebe" d="M93.185 241.847a7.501 7.501 0 0 1-6.329-11.516 30.695 30.695 0 0 1 29.056-14.175 7.5 7.5 0 1 1-1.486 14.926 15.835 15.835 0 0 0-7.92 1.247 16.047 16.047 0 0 0-6.98 6.031 7.495 7.495 0 0 1-6.341 3.487Z"/><path fill="#63ea86" d="M97.727 270.143c-.521 6.196 1.762 12.325 4.913 17.57 9.944 16.554 28.723 23.323 29.867 23.71a56.753 56.753 0 0 0 10.098 2.408c-3.784 1.64-29.172 12.19-50.928-.623-27.555-16.23-32.71-60.16-18.55-74.073 4.382-4.305 13.058-8.129 20.061-4.79 5.739 2.735 10.196 11.122 9.269 17.496-.894 6.145-4.062 11.744-4.695 17.928q-.02.187-.035.374Z"/><path fill="#ffae36" d="M229.167 334.12c.193 8.282-6.363 30.152-14.645 30.346s-15.153-21.363-15.347-29.645a15 15 0 1 1 29.992-.701zm24.081 76.296a15 15 0 0 1-29.991.702c-.194-8.282 6.363-30.153 14.645-30.347s15.153 21.363 15.346 29.645zm-53.351-25.657c.193 8.282-21.363 15.152-29.645 15.346a15 15 0 0 1-.702-29.991c8.282-.194 30.153 6.363 30.347 14.645z"/><path fill="#272a33" d="M366.005 256.644a64.986 64.986 0 1 0-64.986-64.986 65.06 65.06 0 0 0 64.986 64.986Zm0-114.972a49.986 49.986 0 1 1-49.986 49.986 50.043 50.043 0 0 1 49.986-49.986Zm-177.68 67.33a7.5 7.5 0 1 0 7.673 7.322 7.5 7.5 0 0 0-7.674-7.323Zm29.276 103.24a22.582 22.582 0 0 0-3.956-.266c-.317.007-.63.026-.944.046-.105 0-.209-.008-.314-.008A65.06 65.06 0 0 0 147.4 377c0 1.694.086 3.368.214 5.03a22.536 22.536 0 0 0 2.667 14.113 64.922 64.922 0 0 0 99.782 33.755 22.487 22.487 0 0 0 3.412-2.594 64.941 64.941 0 0 0-35.874-115.062Zm-8.856 17.05a7.439 7.439 0 0 1 4.454-2.257q1.278.02 2.54.104a7.51 7.51 0 0 1 5.93 7.154c.14 6.036-4.082 18.365-7.284 22.033-3.178-3.55-7.567-15.494-7.712-21.68a7.456 7.456 0 0 1 2.072-5.354Zm-38.846 63.317a7.488 7.488 0 0 1-5.826-2.795 49.648 49.648 0 0 1-1.318-6.959 7.506 7.506 0 0 1 6.97-5.244c.098-.002.198-.004.3-.004 6.135 0 18.123 4.139 21.732 7.287-3.55 3.179-15.494 7.567-21.68 7.713-.06.002-.118.002-.178.002Zm75.85 17.982a7.452 7.452 0 0 1-2.05 5.33q-.916.739-1.865 1.434a7.498 7.498 0 0 1-11.08-6.413c-.14-6.034 4.082-18.363 7.284-22.031 3.179 3.55 7.567 15.494 7.712 21.68Zm12.476-13.685a71.618 71.618 0 0 0-2.737-7.477c-4.654-10.725-10.523-16.16-17.45-16.16-.103 0-.207.002-.312.004-6.998.163-12.81 5.821-17.274 16.816-2.936 7.229-4.821 15.75-4.693 21.204a22.32 22.32 0 0 0 6.045 14.79 49.859 49.859 0 0 1-49.033-18.653c10.778-1.187 34.96-8.526 34.623-22.846-.366-15.724-29.311-22.188-38.02-21.97a22.482 22.482 0 0 0-5.054.702 50.2 50.2 0 0 1 27.558-31.883 22.557 22.557 0 0 0-.201 3.564c.129 5.497 2.242 13.859 5.257 20.81 4.655 10.726 10.524 16.16 17.45 16.16.103 0 .208-.002.312-.004 15.723-.367 22.173-29.289 21.969-38.02-.005-.213-.02-.422-.031-.633a49.925 49.925 0 0 1 21.591 63.596Zm107.78-170.262a34.986 34.986 0 1 0-34.986-34.986 35.025 35.025 0 0 0 34.986 34.986Zm0-54.972a19.986 19.986 0 1 1-19.986 19.986 20.009 20.009 0 0 1 19.986-19.986ZM150.039 312.834a7.499 7.499 0 0 0-6.368-6.427 49.29 49.29 0 0 1-8.756-2.087c-.171-.058-17.153-5.998-25.846-20.469-1.987-3.307-4.27-8.257-3.87-13.068l.024-.251a38.303 38.303 0 0 1 2.056-7.828 56.042 56.042 0 0 0 2.6-9.785c.937-6.444-1.546-13.786-5.905-19.174a15.334 15.334 0 0 1 2.532-1.416 15.835 15.835 0 0 1 7.92-1.247 7.5 7.5 0 0 0 1.486-14.926 30.887 30.887 0 0 0-15.45 2.444 30.486 30.486 0 0 0-10.114 7.202c-8.318-1.107-17.072 2.672-22.478 7.983-7.8 7.664-11.299 21.668-9.36 37.462 2.58 21.011 13.555 39.114 29.36 48.421a54.504 54.504 0 0 0 28.003 7.33 77.928 77.928 0 0 0 29.715-6.286 7.501 7.501 0 0 0 4.45-7.877Zm-54.556-6.09c-13.91-8.193-20.529-24.653-22.085-37.326-1.334-10.86.623-20.648 4.985-24.933a14.506 14.506 0 0 1 8.986-3.906 5.978 5.978 0 0 1 2.592.536c2.773 1.322 5.524 6.55 5.074 9.645a43.432 43.432 0 0 1-1.98 7.18 50.84 50.84 0 0 0-2.755 11.07l-.046.49-.001.015c-.594 7.069 1.41 14.491 5.958 22.06 5.681 9.46 13.765 16.063 20.616 20.367a40.065 40.065 0 0 1-21.344-5.198ZM354 271.014A64.985 64.985 0 1 0 418.985 336 65.059 65.059 0 0 0 354 271.014Zm0 114.97A49.985 49.985 0 1 1 403.985 336 50.043 50.043 0 0 1 354 385.985Zm18.31-33.16a8.791 8.791 0 0 1 1.306-5.38 7.5 7.5 0 1 0-12.758-7.889 23.897 23.897 0 0 0-3.478 14.711 23.561 23.561 0 0 0 3.51 10.23 7.5 7.5 0 1 0 12.694-7.994 8.493 8.493 0 0 1-1.274-3.678Zm7.43-40.852a7.5 7.5 0 1 0 7.674 7.323 7.5 7.5 0 0 0-7.673-7.323ZM237.997 152.207a12.5 12.5 0 1 0-12.204 12.79 12.5 12.5 0 0 0 12.204-12.79Zm177.81-56.013A226 226 0 0 0 96.194 415.805 226 226 0 0 0 415.807 96.194ZM405.2 405.2a211 211 0 0 1-298.398-298.4 211 211 0 0 1 298.398 298.4Zm-67.24-50.09a7.5 7.5 0 1 0 7.673 7.324 7.5 7.5 0 0 0-7.673-7.323Zm99.06-280.13A256 256 0 0 0 74.98 437.02 256 256 0 0 0 437.02 74.98Zm-10.606 351.433A241 241 0 0 1 85.587 85.586a241 241 0 0 1 340.826 340.827ZM340.458 297.09a7.5 7.5 0 0 0-2.435 10.324 8.793 8.793 0 0 1 1.306 5.38 8.493 8.493 0 0 1-1.273 3.678 7.5 7.5 0 1 0 12.693 7.994 23.548 23.548 0 0 0 3.51-10.23 23.893 23.893 0 0 0-3.478-14.711 7.5 7.5 0 0 0-10.323-2.435Zm-101.134-184.09a7.5 7.5 0 1 0 7.674 7.323 7.5 7.5 0 0 0-7.674-7.323Zm94.864 222.823a7.5 7.5 0 1 0-7.323 7.673 7.5 7.5 0 0 0 7.323-7.673Zm-97.864-139.823a7.5 7.5 0 1 0 7.674 7.323 7.5 7.5 0 0 0-7.674-7.323Zm19-22a7.5 7.5 0 1 0 7.674 7.323 7.5 7.5 0 0 0-7.674-7.323Zm23.19-95.029a17.907 17.907 0 0 0-12.808-4.958l-3.283.076A84.775 84.775 0 0 0 218.88 87.2c-.468-.027-.939-.038-1.413-.029l-3.274.08A85.306 85.306 0 0 0 130.88 172.5c0 .665.01 1.318.022 2.026a85.419 85.419 0 0 0 85.267 83.316c.668 0 1.342-.008 2.013-.023l3.29-.08a17.98 17.98 0 0 0 17.476-16.93 85.295 85.295 0 0 0 25.418 3.87 89.5 89.5 0 0 0 2.047-.024l3.281-.077a17.948 17.948 0 0 0 17.524-18.363l-3.15-134.676a17.83 17.83 0 0 0-5.553-12.566Zm-57.407 163.77-3.282.08c-.556.012-1.105.02-1.66.02a70.395 70.395 0 0 1-70.266-68.623c-.01-.576-.02-1.143-.02-1.72a70.306 70.306 0 0 1 53.42-68.211 84.527 84.527 0 0 0-19.97 49.048 12.498 12.498 0 1 0 1.652 23.82 84.683 84.683 0 0 0 24.544 43.93 85.72 85.72 0 0 0 18.342 13.352l.125 5.28a2.962 2.962 0 0 1-2.885 3.024Zm50.3-14.073a2.934 2.934 0 0 1-2.062.912h-.001l-3.283.077a69.794 69.794 0 0 1-50.18-19.423 70.646 70.646 0 0 1-11.639-14.488 7.62 7.62 0 0 0-6.35-13.578 70.377 70.377 0 0 1 27.02-80.96c.027-.018.054-.035.08-.054a69.814 69.814 0 0 1 37.78-12.069l3.285-.076h.072a2.947 2.947 0 0 1 2.942 2.878l3.15 134.677a2.935 2.935 0 0 1-.814 2.104Z"/></svg>