<svg xmlns="http://www.w3.org/2000/svg" data-name="Layer 1" viewBox="0 0 512 512"><rect width="73.599" height="95.593" x="219.2" y="352.988" fill="#676e87"/><rect width="34.246" height="95.593" x="258.554" y="352.988" fill="#595f74"/><rect width="497" height="344.734" x="7.5" y="8.254" fill="#595f74" rx="30"/><path fill="#4a4f60" d="M474.5,8.25388h-30a30.00008,30.00008,0,0,1,30,30V322.98777a30.00008,30.00008,0,0,1-30,30h30a30.00008,30.00008,0,0,0,30-30V38.25388A30.00008,30.00008,0,0,0,474.5,8.25388Z"/><rect width="276.694" height="429.227" x="117.653" y="-33.992" fill="#fff" rx="10" transform="rotate(90 256 180.621)"/><path fill="#f7f7f7" d="M460.61377,42.27439h-45a10,10,0,0,1,10,10V308.96824a10,10,0,0,1-10,10h45a10,10,0,0,0,10-10V52.27439A10,10,0,0,0,460.61377,42.27439Z"/><path fill="#595f74" d="M388.681,500.61215a3.992,3.992,0,0,1-4.36282,2.64138,873.40556,873.40556,0,0,0-256.63625,0,3.99207,3.99207,0,0,1-4.36291-2.64137q-7.10984-20.46194-14.21967-40.92349a3.99742,3.99742,0,0,1,3.30828-5.28656,1248.26621,1248.26621,0,0,1,287.18445-.00006,3.99755,3.99755,0,0,1,3.30871,5.28633Q395.79088,480.1504,388.681,500.61215Z"/><path fill="#4a4f60" d="M399.592,454.40183q-20.96118-2.42724-43.56421-4.26611a4.00176,4.00176,0,0,1,1.873,4.83056q-7.11,20.4624-14.22,40.92383a3.98334,3.98334,0,0,1-1.74854,2.12988c14.89234,1.47266,29.04737,3.25245,42.38575,5.2334a3.99163,3.99163,0,0,0,4.36279-2.64111q7.11-20.4624,14.22-40.92383A3.998,3.998,0,0,0,399.592,454.40183Z"/><path fill="#f66" d="M144.021,118.061h25.92755a39,39,0,0,1,39,39v14.82946a0,0,0,0,1,0,0H105.021a0,0,0,0,1,0,0V157.061A39,39,0,0,1,144.021,118.061Z"/><path fill="#ff4e4e" d="M169.94849,118.061H144.021q-1.02466,0-2.03626.05273A39.00162,39.00162,0,0,1,178.94849,157.061V171.8906h30V157.061A39.00006,39.00006,0,0,0,169.94849,118.061Z"/><path fill="#ffe966" d="M103.27,171.89046H210.434a15,15,0,0,1,15,15v0a15,15,0,0,1-15,15H103.27a15,15,0,0,1-15-15v0A15,15,0,0,1,103.27,171.89046Z"/><path fill="#ffe236" d="M210.434,171.8906h-30a14.99973,14.99973,0,0,1,15,15h0a15,15,0,0,1-15,15h30a15,15,0,0,0,15-15h0A14.99973,14.99973,0,0,0,210.434,171.8906Z"/><ellipse cx="156.713" cy="104.677" fill="#ffe966" rx="13.059" ry="13.384"/><path fill="#ffe236" d="M156.71265,91.29392a12.72456,12.72456,0,0,0-4.49781.832,13.4814,13.4814,0,0,1,0,25.103,12.72456,12.72456,0,0,0,4.49781.832,13.38758,13.38758,0,0,0,0-26.76709Z"/><path fill="#f66" d="M93.85128,269.94864h72.29091a5.65888,5.65888,0,0,0,5.64772-5.67V241.59882a5.65887,5.65887,0,0,0-5.64772-5.67H93.85128a5.65888,5.65888,0,0,0-5.64773,5.67v22.67985A5.65888,5.65888,0,0,0,93.85128,269.94864Z"/><path fill="#ff4e4e" d="M166.14221,235.92869h-30a5.65889,5.65889,0,0,1,5.64771,5.66992v22.68017a5.65889,5.65889,0,0,1-5.64771,5.66992h30a5.65889,5.65889,0,0,0,5.64771-5.66992V241.59861A5.65889,5.65889,0,0,0,166.14221,235.92869Z"/><path fill="#63ea86" d="M211.324,269.94864h72.29091a5.65888,5.65888,0,0,0,5.64773-5.67V241.59882a5.65888,5.65888,0,0,0-5.64773-5.67H211.324a5.65887,5.65887,0,0,0-5.64772,5.67v22.67985A5.65888,5.65888,0,0,0,211.324,269.94864Z"/><path fill="#3ce568" d="M283.615,235.92869h-30a5.65889,5.65889,0,0,1,5.64771,5.66992v22.68017a5.65889,5.65889,0,0,1-5.64771,5.66992h30a5.65889,5.65889,0,0,0,5.64771-5.66992V241.59861A5.65889,5.65889,0,0,0,283.615,235.92869Z"/><path fill="#676e87" d="M371.13549,260.72972l-23.9288-61.41724a3,3,0,0,1,3.88442-3.88442l61.41725,23.92879a3,3,0,0,1-.44233,5.72479l-26.96889,5.95417a3,3,0,0,0-2.28269,2.28269l-5.95418,26.9689A3,3,0,0,1,371.13549,260.72972Z"/><path fill="#272a33" d="M474.49988.75391h-437a37.54225,37.54225,0,0,0-37.5,37.5V322.9873a37.54225,37.54225,0,0,0,37.5,37.5H211.70007V439.398c-35.15063,1.2456-70.35327,3.97217-105.12793,8.14014a7.5,7.5,0,0,0-6.19238,9.9082L117.32312,506.208a7.48936,7.48936,0,0,0,8.21484,4.95215,868.69389,868.69389,0,0,1,130.34571-9.88477h.11816a868.83012,868.83012,0,0,1,130.46,9.88477,7.49363,7.49363,0,0,0,8.21485-4.95215L411.62,457.44629a7.5,7.5,0,0,0-6.19239-9.9082c-34.77-4.16748-69.97949-6.88135-105.12793-8.12745V360.4873h174.2002a37.54226,37.54226,0,0,0,37.5-37.5V38.25391A37.54226,37.54226,0,0,0,474.49988.75391ZM394.38074,461.35645l-11.834,34.05664a884.04332,884.04332,0,0,0-126.54492-9.1377h-.12012a883.99784,883.99784,0,0,0-126.42968,9.1377l-11.833-34.05664a1245.9768,1245.9768,0,0,1,138.39062-7.74122c.68848,0,1.38086.001,2.06836.002A1246.17862,1246.17862,0,0,1,394.38074,461.35645ZM226.70007,438.96094V360.4873h58.59961v78.47461q-13.61573-.32006-27.19629-.34472Q242.431,438.585,226.70007,438.96094ZM496.99988,322.9873a22.52586,22.52586,0,0,1-22.5,22.5h-437a22.52586,22.52586,0,0,1-22.5-22.5V38.25391a22.52586,22.52586,0,0,1,22.5-22.5h437a22.52586,22.52586,0,0,1,22.5,22.5ZM283.61511,228.42871h-72.291a13.17344,13.17344,0,0,0-13.14746,13.16992v22.67969a13.17344,13.17344,0,0,0,13.14746,13.16992h72.291a13.17344,13.17344,0,0,0,13.14746-13.16992V241.59863A13.17344,13.17344,0,0,0,283.61511,228.42871Zm-1.85254,34.01953H213.17664V243.42871h68.58593ZM470.61316,34.77344H41.3866a7.49943,7.49943,0,0,0-7.5,7.5V318.96777a7.49943,7.49943,0,0,0,7.5,7.5H470.61316a7.49943,7.49943,0,0,0,7.5-7.5V42.27344A7.49943,7.49943,0,0,0,470.61316,34.77344Zm-7.5,276.69433H48.8866V49.77344H463.11316ZM93.85144,277.44824h72.291a13.17344,13.17344,0,0,0,13.14746-13.16992V241.59863a13.17344,13.17344,0,0,0-13.14746-13.16992h-72.291A13.17427,13.17427,0,0,0,80.703,241.59863v22.67969A13.17427,13.17427,0,0,0,93.85144,277.44824ZM95.703,243.42871h68.58692v19.01953H95.703ZM289.26257,166.833H368.954a7.5,7.5,0,0,0,0-15H289.26257a7.5,7.5,0,0,0,0,15ZM103.27039,205.86133H210.43347A18.98338,18.98338,0,0,0,216.42,168.919a59.55669,59.55669,0,0,0-41.08654-55.44776,20.99823,20.99823,0,0,0,1.93786-8.79443,20.56159,20.56159,0,1,0-41.11816,0,20.99234,20.99234,0,0,0,2.0133,8.95312,59.55333,59.55333,0,0,0-40.6156,55.18994,18.98914,18.98914,0,0,0,5.71949,37.04151ZM156.71277,98.794a5.89273,5.89273,0,1,1-5.55957,5.88281A5.7336,5.7336,0,0,1,156.71277,98.794Zm.27148,26.7666a44.51637,44.51637,0,0,1,44.4104,42.35742h-88.8208A44.51637,44.51637,0,0,1,156.98425,125.56055ZM103.27039,182.918H210.43347a3.97468,3.97468,0,0,1,0,7.94336H103.27039a3.97468,3.97468,0,0,1,0-7.94336ZM289.26257,98.794H421.72742a7.5,7.5,0,0,0,0-15H289.26257a7.5,7.5,0,0,0,0,15Zm0,34.01953H421.72742a7.5,7.5,0,0,0,0-15H289.26257a7.5,7.5,0,0,0,0,15ZM424.45007,215.96l-77-30a7.49949,7.49949,0,0,0-9.71093,9.71094l30,77a7.50035,7.50035,0,0,0,6.98535,4.77734c.19238,0,.38672-.00683.58105-.02246a7.49842,7.49842,0,0,0,6.74512-5.86035L387.601,246.4292l26.74561,26.7456A7.50058,7.50058,0,0,0,424.954,262.56738l-26.74561-26.7456,25.13623-5.5503A7.49978,7.49978,0,0,0,424.45007,215.96Zm-42.83984,8.165c-.03857.00879-.07422.02441-.11255.03369a7.44886,7.44886,0,0,0-.82251.24463c-.0498.01807-.10107.0332-.15039.05273a7.423,7.423,0,0,0-.88037.40674c-.04443.02393-.08594.05127-.12964.07617a7.475,7.475,0,0,0-.68481.44385c-.06226.04492-.12427.08887-.18506.13574a6.78771,6.78771,0,0,0-1.34864,1.34864c-.04565.05957-.08862.12011-.13256.18066a7.44243,7.44243,0,0,0-.44971.69434c-.023.04052-.04834.0791-.07056.11963a7.40836,7.40836,0,0,0-.41064.88867c-.01709.04443-.03076.08984-.04712.13476a7.51713,7.51713,0,0,0-.25171.84522c-.00781.03418-.02222.06592-.02979.10058l-3.168,14.34668-14.82227-38.043,38.043,14.82226Z"/></svg>