<svg xmlns="http://www.w3.org/2000/svg" data-name="Layer 1" viewBox="0 0 512 512"><path fill="#63ea86" d="M183.79 62.381v358.05l-7.5 1.52-124.95 25.25a10 10 0 0 1-11.98-9.8V91.571l136.93-27.67Z"/><path fill="#66c1ff" d="M183.79 315.681v104.75l-7.5 1.52-124.95 25.25a10 10 0 0 1-11.98-9.8v-121.72Z"/><path fill="#63ea86" d="M472.64 74.601v345.83l-136.93 27.67-7.5 1.52V91.571l7.5-1.52 124.95-25.25a10 10 0 0 1 11.98 9.8Z"/><path fill="#66c1ff" d="M472.64 225.161v195.27l-136.93 27.67-7.5 1.52v-224.46h144.43z"/><path fill="#63ea86" d="M328.21 91.571v358.05l-7.5-1.52-129.42-26.15-7.5-1.52V62.381l7.5 1.52 129.42 26.15 7.5 1.52z"/><path fill="#66c1ff" d="M328.21 375.511v74.11l-7.5-1.52-129.42-26.15-7.5-1.52v-44.92h144.42z"/><path fill="#f66" d="M127.08 67.29c0 30.915-36.552 76.57-52.497 95.014a9.636 9.636 0 0 1-14.585 0C44.053 143.859 7.5 98.205 7.5 67.29a59.79 59.79 0 0 1 119.58 0zm288.88 335.327h13.305a60 60 0 0 1 60 60v13.318H355.96v-13.318a60 60 0 0 1 60-60z"/><path fill="#ff4e4e" d="M429.265 402.617H415.96a60.495 60.495 0 0 0-8.347.591 60.002 60.002 0 0 1 51.652 59.41v13.317h30v-13.318a60 60 0 0 0-60-60Z"/><rect width="163.774" height="28.565" x="340.726" y="475.935" fill="#ffe966" rx="14.283"/><path fill="#ffe236" d="M490.217 475.935h-30a14.283 14.283 0 0 1 0 28.565h30a14.283 14.283 0 0 0 0-28.565Z"/><circle cx="422.613" cy="385.954" r="16.663" fill="#ffe966"/><path fill="#ffe236" d="M422.613 369.291a16.598 16.598 0 0 0-5.395.91 16.645 16.645 0 0 1 0 31.506 16.658 16.658 0 1 0 5.395-32.416Z"/><path fill="#ff4e4e" d="M67.29 7.5a59.878 59.878 0 0 0-15 1.899A59.814 59.814 0 0 1 97.08 67.29c0 26.613-27.079 64.134-44.79 85.832a426.15 426.15 0 0 0 7.708 9.18 9.636 9.636 0 0 0 14.585 0c15.945-18.444 52.498-64.098 52.498-95.013A59.79 59.79 0 0 0 67.29 7.5Z"/><circle cx="67.29" cy="67.773" r="16.876" fill="#fff"/><path fill="#eee" d="M67.29 50.896a16.81 16.81 0 0 0-5.525.945 16.857 16.857 0 0 1 0 31.864 16.87 16.87 0 1 0 5.525-32.809Z"/><path fill="#272a33" d="M114.266 238.959a88.51 88.51 0 0 1-10.51-8.146A7.5 7.5 0 0 0 93.7 241.945a103.476 103.476 0 0 0 12.298 9.53 7.5 7.5 0 1 0 8.267-12.515ZM81.09 198.367a7.5 7.5 0 1 0-13.918 5.594 102.853 102.853 0 0 0 6.888 13.962 7.5 7.5 0 0 0 12.91-7.639 87.692 87.692 0 0 1-5.88-11.917ZM91.667 67.772A24.376 24.376 0 1 0 67.29 92.148a24.404 24.404 0 0 0 24.377-24.376Zm-33.753 0a9.376 9.376 0 1 1 9.376 9.376 9.387 9.387 0 0 1-9.376-9.376Zm438.851 401.67v-6.826a67.167 67.167 0 0 0-16.627-44.296V74.602a17.5 17.5 0 0 0-20.967-17.154L328.212 83.916l-142.939-28.89c-.077-.015-.154-.02-.231-.033a7.547 7.547 0 0 0-.432-.063 7.657 7.657 0 0 0-.409-.032 7.155 7.155 0 0 0-1.675.096c-.074.013-.15.017-.224.032l-47.787 9.659A67.283 67.283 0 0 0 0 67.29c0 21.79 15.53 49.017 31.862 71.63v298.477a17.508 17.508 0 0 0 17.476 17.504 17.65 17.65 0 0 0 3.491-.35l130.958-26.467 142.94 28.889c.047.01.095.012.142.021.061.011.122.018.183.027a6.806 6.806 0 0 0 2.32 0c.062-.009.122-.016.183-.027.047-.009.095-.012.143-.021l19.451-3.931a67.706 67.706 0 0 0-.689 9.574v6.826A21.783 21.783 0 0 0 355.008 512h135.21a21.783 21.783 0 0 0 6.547-42.558ZM45.053 131.543C25.921 105.273 15 82.257 15 67.29a52.29 52.29 0 0 1 104.58 0c0 19.72-18.942 53.405-50.67 90.108a2.117 2.117 0 0 1-1.62.743 2.115 2.115 0 0 1-1.618-.743c-7.371-8.526-14.042-16.886-19.956-24.95a7.498 7.498 0 0 0-.663-.905Zm131.234 282.753-126.43 25.552a2.5 2.5 0 0 1-2.995-2.45V323.176h129.425Zm0-160.248a7.5 7.5 0 0 0 0 13.787v40.342H46.862v-149.83a455.37 455.37 0 0 0 7.463 8.862 17.128 17.128 0 0 0 5.649 4.281c.042.744.072 1.491.13 2.23a7.5 7.5 0 0 0 7.469 6.919c.195 0 .392-.007.59-.023a7.5 7.5 0 0 0 6.895-8.058c-.032-.42-.046-.845-.073-1.266a17.124 17.124 0 0 0 5.272-4.083c17.672-20.443 45.764-56.603 52.72-86.91l43.31-8.753Zm144.425 186.406-129.425-26.158v-31.288h129.425Zm0-187.013H309.23a7.5 7.5 0 0 0 0 15h11.482v99.567H191.287V268.44h2.398a7.5 7.5 0 0 0 0-15h-2.398V71.545l129.425 26.158Zm161.053 209.175v5.819H363.46v-5.819a52.56 52.56 0 0 1 52.5-52.5h13.305a52.56 52.56 0 0 1 52.5 52.5Zm-68.315-76.663a9.173 9.173 0 0 1 9.153-9.162h.02a9.163 9.163 0 1 1-9.173 9.162Zm-77.738-288.25 126.43-25.552a2.5 2.5 0 0 1 2.996 2.45v143H335.712Zm0 342.75V232.601h129.426v172.878a67.162 67.162 0 0 0-20.944-8.678 24.138 24.138 0 0 0-14.081-33.814v-1.196a7.5 7.5 0 0 0-15 0v1.196a24.138 24.138 0 0 0-14.082 33.814 67.772 67.772 0 0 0-47.448 40.04ZM490.217 497H355.008a6.783 6.783 0 1 1 0-13.565h135.21a6.783 6.783 0 1 1 0 13.565ZM385.164 290.194a88.606 88.606 0 0 1 9.311 9.493 7.5 7.5 0 1 0 11.47-9.666 103.646 103.646 0 0 0-10.892-11.106 7.5 7.5 0 0 0-9.889 11.28ZM129.053 255.19a7.5 7.5 0 0 0 5.14 9.278 102.408 102.408 0 0 0 15.25 3.14 7.583 7.583 0 0 0 .958.061 7.5 7.5 0 0 0 .94-14.94 87.436 87.436 0 0 1-13.011-2.68 7.496 7.496 0 0 0-9.277 5.141ZM412.5 334.892a7.5 7.5 0 0 0 14.554-3.633 102.384 102.384 0 0 0-4.913-14.775 7.5 7.5 0 1 0-13.832 5.805 87.362 87.362 0 0 1 4.191 12.603Zm-189.928-66.45h14.443a7.5 7.5 0 0 0 0-15h-14.443a7.5 7.5 0 0 0 0 15Zm43.329 0h14.443a7.5 7.5 0 0 0 0-15H265.9a7.5 7.5 0 0 0 0 15Zm99.96 8.12a7.502 7.502 0 0 0 3.04-14.36A102.523 102.523 0 0 0 354.218 257a7.5 7.5 0 1 0-3.918 14.479 87.514 87.514 0 0 1 12.527 4.44 7.482 7.482 0 0 0 3.032.644Z"/></svg>