<svg xmlns="http://www.w3.org/2000/svg" data-name="Layer 1" viewBox="0 0 512 512"><rect width="292" height="497" x="110" y="7.502" fill="#fff" rx="30"/><path fill="#eee" d="M372 7.502h-45a29.998 29.998 0 0 1 30 30v437a29.998 29.998 0 0 1-30 30h45a29.998 29.998 0 0 0 30-30v-437a29.998 29.998 0 0 0-30-30Z"/><path fill="#4a4f60" d="M303.23 37.5h-94.46a15 15 0 0 1-13.416-8.292L184.5 7.5h143l-10.854 21.708a15 15 0 0 1-13.417 8.292Z"/><path fill="#eee" d="M152.4 169.5h69.1v30.6a34.612 34.612 0 0 1-34.6 34.6 34.612 34.612 0 0 1-34.6-34.6l.1-30.6zm138.3 0h69.1v30.6a34.612 34.612 0 0 1-34.6 34.6 34.612 34.612 0 0 1-34.6-34.6l.1-30.6z"/><path fill="#eee" d="M221.5 169.5h69.1v30.6a34.612 34.612 0 0 1-34.6 34.6 34.612 34.612 0 0 1-34.6-34.6v-30.6zm-69.1.002v30.6c0 .6-.02 1.19-.05 1.78a34.6 34.6 0 0 1-42.35 31.93v-64.31zm249.6 0v64.33a34.606 34.606 0 0 1-42.25-31.95c-.03-.59-.05-1.18-.05-1.78v-30.6z"/><path fill="#4a4f60" d="M372 512H140a37.542 37.542 0 0 1-37.5-37.5v-437A37.542 37.542 0 0 1 140 0h232a37.542 37.542 0 0 1 37.5 37.5v437A37.542 37.542 0 0 1 372 512ZM140 15a22.526 22.526 0 0 0-22.5 22.5v437A22.526 22.526 0 0 0 140 497h232a22.526 22.526 0 0 0 22.5-22.5v-437A22.526 22.526 0 0 0 372 15Z"/><path fill="#ffe966" d="m406.776 305.679 9.077 18.392a5.326 5.326 0 0 0 4.01 2.913l20.297 2.95a5.326 5.326 0 0 1 2.951 9.083l-14.687 14.317a5.326 5.326 0 0 0-1.532 4.713l3.468 20.215a5.326 5.326 0 0 1-7.728 5.614l-18.154-9.544a5.326 5.326 0 0 0-4.956 0l-18.154 9.544a5.326 5.326 0 0 1-7.728-5.614l3.468-20.215a5.326 5.326 0 0 0-1.532-4.713l-14.687-14.317a5.326 5.326 0 0 1 2.952-9.084l20.297-2.949a5.326 5.326 0 0 0 4.01-2.913l9.076-18.392a5.326 5.326 0 0 1 9.552 0Z"/><path fill="#ffe236" d="M443.111 339.017a5.325 5.325 0 0 0-2.951-9.084l-20.297-2.95a5.325 5.325 0 0 1-4.01-2.912l-9.077-18.392a5.325 5.325 0 0 0-9.552 0l-4.332 8.777 7.96 16.13a5.325 5.325 0 0 0 4.01 2.914l20.298 2.95a5.326 5.326 0 0 1 2.951 9.083l-14.687 14.317a5.325 5.325 0 0 0-1.532 4.713l2.577 15.021 8.163 4.292a5.326 5.326 0 0 0 7.728-5.614l-3.468-20.215a5.326 5.326 0 0 1 1.532-4.714Z"/><path fill="#ffe966" d="m262.149 254.389 11.686 23.68a6.857 6.857 0 0 0 5.163 3.75l26.133 3.798a6.857 6.857 0 0 1 3.8 11.695l-18.91 18.433a6.857 6.857 0 0 0-1.972 6.069l4.464 26.027a6.857 6.857 0 0 1-9.949 7.228l-23.373-12.288a6.857 6.857 0 0 0-6.382 0l-23.373 12.288a6.857 6.857 0 0 1-9.95-7.228l4.465-26.027a6.857 6.857 0 0 0-1.972-6.07l-18.91-18.432a6.857 6.857 0 0 1 3.8-11.695l26.133-3.797a6.857 6.857 0 0 0 5.163-3.751l11.686-23.68a6.857 6.857 0 0 1 12.298 0Z"/><path fill="#ffe236" d="M308.93 297.312a6.857 6.857 0 0 0-3.8-11.695l-26.132-3.797a6.858 6.858 0 0 1-5.162-3.751l-11.687-23.68a6.857 6.857 0 0 0-12.298 0l-6.678 13.532 9.242 18.727a6.857 6.857 0 0 0 5.162 3.75l26.133 3.798a6.857 6.857 0 0 1 3.8 11.695l-18.91 18.433a6.858 6.858 0 0 0-1.972 6.069l3.073 17.913 12.863 6.763a6.857 6.857 0 0 0 9.95-7.228l-4.465-26.027a6.857 6.857 0 0 1 1.972-6.07Z"/><path fill="#f66" d="M248.064 404.57h15.872a42 42 0 0 1 42 42v12.93h-99.872v-12.93a42 42 0 0 1 42-42Z"/><path fill="#ff4e4e" d="M263.936 404.57h-15.872a42.2 42.2 0 0 0-7.064.603 42.003 42.003 0 0 1 34.936 41.397v12.93h30v-12.93a42 42 0 0 0-42-42ZM428.9 154.5l-124.8 15-220.8-15 28.5-72 39.375 15 25.525-15h52.6l32.644 15 20.956-15h52.5l34.938 15 30.062-15 28.5 72z"/><path fill="#f66" d="M152.4 154.5h69.1v30.6a34.612 34.612 0 0 1-34.6 34.6 34.612 34.612 0 0 1-34.6-34.6l.1-30.6zm138.3 0h69.1v30.6a34.612 34.612 0 0 1-34.6 34.6 34.612 34.612 0 0 1-34.6-34.6l.1-30.6z"/><path fill="#3ce568" d="m428.9 154.5-35.6 15-33.7-15-24.1-71.3-.1-.7h65l28.5 72zM221.5 154.5l7.8-72h53.6l7.8 72-38.1 15-31.1-15zM176.7 82.5l-24.3 72-36.8 15-32.3-15 28.5-72h64.9z"/><path fill="#63ea86" d="M221.5 154.5h69.1v30.6a34.612 34.612 0 0 1-34.6 34.6 34.612 34.612 0 0 1-34.6-34.6v-30.6zm-138.2 0h69.1v30.6a34.612 34.612 0 0 1-34.6 34.6 34.612 34.612 0 0 1-34.6-34.6v-30.6zm276.5 0h69.1v30.6a34.612 34.612 0 0 1-34.6 34.6 34.612 34.612 0 0 1-34.6-34.6v-30.6z"/><path fill="#ffe966" d="m114.776 305.679 9.077 18.392a5.326 5.326 0 0 0 4.01 2.913l20.297 2.95a5.326 5.326 0 0 1 2.951 9.083l-14.687 14.317a5.326 5.326 0 0 0-1.532 4.713l3.468 20.215a5.326 5.326 0 0 1-7.728 5.614l-18.154-9.544a5.326 5.326 0 0 0-4.956 0l-18.154 9.544a5.326 5.326 0 0 1-7.728-5.614l3.468-20.215a5.326 5.326 0 0 0-1.532-4.714l-14.687-14.316a5.326 5.326 0 0 1 2.951-9.084l20.297-2.949a5.326 5.326 0 0 0 4.01-2.913l9.077-18.392a5.326 5.326 0 0 1 9.552 0Z"/><path fill="#ffe236" d="M151.111 339.017a5.325 5.325 0 0 0-2.951-9.084l-20.297-2.95a5.325 5.325 0 0 1-4.01-2.912l-9.077-18.392a5.325 5.325 0 0 0-9.552 0l-4.117 8.343 7.746 15.696a5.326 5.326 0 0 0 4.01 2.913l20.297 2.95a5.326 5.326 0 0 1 2.951 9.083l-14.687 14.316a5.326 5.326 0 0 0-1.532 4.714l2.74 15.977 8 4.205a5.326 5.326 0 0 0 7.728-5.614l-3.468-20.215a5.326 5.326 0 0 1 1.532-4.714Z"/><path fill="#272a33" d="M451.592 331.24a12.745 12.745 0 0 0-10.354-8.73l-19.166-2.784-8.57-17.368a12.832 12.832 0 0 0-4.002-4.744v-73.266a42.16 42.16 0 0 0 26.9-39.248v-30.6c0-.06-.008-.12-.01-.18a7.446 7.446 0 0 0-.025-.507c-.01-.103-.025-.204-.038-.306-.019-.138-.037-.276-.064-.413-.025-.134-.058-.265-.09-.396-.026-.104-.05-.207-.08-.31a7.457 7.457 0 0 0-.159-.47c-.022-.059-.037-.12-.06-.179L409.5 85.111v-47.61A37.542 37.542 0 0 0 372 0H140a37.542 37.542 0 0 0-37.5 37.5v48.115L76.73 150.72a7.454 7.454 0 0 0-1.03 3.779v30.6a42.16 42.16 0 0 0 26.8 39.209v73.305a12.832 12.832 0 0 0-4.002 4.744l-8.57 17.368-19.166 2.785a12.826 12.826 0 0 0-7.108 21.877l13.868 13.517-3.274 19.088a12.826 12.826 0 0 0 18.61 13.522l9.642-5.07v89.056A37.542 37.542 0 0 0 140 512h232a37.542 37.542 0 0 0 37.5-37.5v-89.056l9.643 5.07a12.825 12.825 0 0 0 18.608-13.52l-3.273-19.09 13.868-13.517a12.746 12.746 0 0 0 3.246-13.148ZM421.4 185.1a27.097 27.097 0 0 1-54.143 1.677c.022-.557.043-1.115.043-1.677V162h54.1Zm-3.535-38.1h-52.883l-19.267-57h49.587Zm-119.69 15H352.2v23.1c0 .562.02 1.12.043 1.677a27.097 27.097 0 0 1-54.143-1.653Zm-.743-15-6.176-57h38.626l19.266 57Zm17.932-132-5.426 10.853A7.46 7.46 0 0 1 303.229 30H208.77a7.46 7.46 0 0 1-6.708-4.147l-5.426-10.852ZM117.5 37.5A22.526 22.526 0 0 1 140 15h39.865l8.78 17.562A22.377 22.377 0 0 0 208.77 45h94.46a22.377 22.377 0 0 0 20.124-12.438l8.78-17.561H372a22.526 22.526 0 0 1 22.5 22.5V75H117.499ZM283.1 162v23.1a27.097 27.097 0 0 1-54.143 1.682c.022-.56.043-1.119.043-1.682V162Zm-53.244-15 6.175-57h40.137l6.176 57Zm-15.914 39.782a27.095 27.095 0 0 1-54.085.016c.022-.564.043-1.13.043-1.698V162h54v23.1c0 .564.02 1.123.042 1.682ZM162.846 147l19.238-57h38.86l-6.176 57Zm-45.949-57h49.356l-19.237 57H94.335ZM90.7 185.1V162h54.175l-.075 23.1c0 .564.02 1.123.042 1.682A27.097 27.097 0 0 1 90.7 185.1Zm20.241 181.176a6.799 6.799 0 0 0-1.882 0 12.783 12.783 0 0 0-5.027 1.417l-14.255 7.494 2.722-15.872a12.827 12.827 0 0 0-3.688-11.353L77.28 336.72l15.936-2.316a12.822 12.822 0 0 0 9.658-7.015L110 312.947l7.127 14.443a12.822 12.822 0 0 0 9.657 7.015l15.937 2.316-11.533 11.242a12.824 12.824 0 0 0-3.688 11.351l2.723 15.873-14.255-7.494a12.79 12.79 0 0 0-5.027-1.417ZM394.5 474.501A22.526 22.526 0 0 1 372 497H140a22.526 22.526 0 0 1-22.5-22.5v-89.056l9.643 5.07a12.825 12.825 0 0 0 18.608-13.52l-3.273-19.09 13.868-13.517a12.826 12.826 0 0 0-7.108-21.877l-19.166-2.786-8.57-17.367a12.832 12.832 0 0 0-4.002-4.744V227.19c.1.001.2.008.3.008a42.075 42.075 0 0 0 34.55-18.085 42.045 42.045 0 0 0 69.1 0 42.046 42.046 0 0 0 69.15-.07 42.045 42.045 0 0 0 69.15.07 42.073 42.073 0 0 0 34.55 18.085c.067 0 .133-.005.2-.005v70.42a12.832 12.832 0 0 0-4.002 4.744l-8.57 17.368-19.166 2.785a12.826 12.826 0 0 0-7.108 21.877l13.868 13.517-3.274 19.088a12.826 12.826 0 0 0 18.61 13.522l9.642-5.07Zm28.688-126.538a12.824 12.824 0 0 0-3.688 11.351l2.723 15.873-14.255-7.494a12.79 12.79 0 0 0-5.027-1.417 6.799 6.799 0 0 0-1.882 0 12.783 12.783 0 0 0-5.027 1.417l-14.255 7.494 2.722-15.872a12.827 12.827 0 0 0-3.688-11.353L369.28 336.72l15.936-2.316a12.822 12.822 0 0 0 9.658-7.015L402 312.947l7.127 14.443a12.822 12.822 0 0 0 9.657 7.015l15.937 2.316ZM216.5 320.879l-4.406 25.694a14.357 14.357 0 0 0 20.83 15.134L256 349.577l23.074 12.13a14.357 14.357 0 0 0 20.831-15.134l-4.407-25.694 18.667-18.196a14.357 14.357 0 0 0-7.956-24.489l-25.798-3.748-11.537-23.377a14.356 14.356 0 0 0-25.748 0l-11.537 23.377-25.799 3.748a14.357 14.357 0 0 0-7.956 24.489Zm17.578-31.638a14.355 14.355 0 0 0 10.811-7.853L256 258.877l11.11 22.512a14.354 14.354 0 0 0 10.81 7.852l24.842 3.61-17.976 17.523a14.352 14.352 0 0 0-4.129 12.707l4.244 24.742-22.221-11.681a14.354 14.354 0 0 0-13.361 0l-22.22 11.681 4.244-24.741a14.356 14.356 0 0 0-4.129-12.709l-17.976-17.523ZM320.936 452h-7.5v-5.43a49.556 49.556 0 0 0-49.5-49.5h-.436v-8.919a7.5 7.5 0 0 0-15 0v8.918h-.437a49.556 49.556 0 0 0-49.5 49.5V452h-7.5a7.5 7.5 0 0 0 0 15h129.873a7.5 7.5 0 0 0 0-15Zm-22.5 0h-84.873v-5.43a34.539 34.539 0 0 1 34.5-34.5h15.873a34.539 34.539 0 0 1 34.5 34.5Z"/></svg>