<svg xmlns="http://www.w3.org/2000/svg" xmlns:xlink="http://www.w3.org/1999/xlink" width="190" zoomAndPan="magnify" viewBox="0 0 142.5 30.000001" height="40" preserveAspectRatio="xMidYMid meet" version="1.0"><defs><g/><clipPath id="id1"><path d="M 16.324219 6.5 L 32.351562 6.5 L 32.351562 22.523438 L 16.324219 22.523438 Z M 16.324219 6.5 " clip-rule="nonzero"/></clipPath><clipPath id="id2"><path d="M 18 6 L 31 6 L 31 21 L 18 21 Z M 18 6 " clip-rule="nonzero"/></clipPath><clipPath id="id3"><path d="M 33.800781 15.726562 L 22.742188 24.046875 L 14.859375 13.570312 L 25.917969 5.25 Z M 33.800781 15.726562 " clip-rule="nonzero"/></clipPath><clipPath id="id4"><path d="M 33.800781 15.726562 L 22.742188 24.046875 L 14.859375 13.570312 L 25.917969 5.25 Z M 33.800781 15.726562 " clip-rule="nonzero"/></clipPath><clipPath id="id5"><path d="M 22.394531 16.039062 L 26.472656 16.039062 L 26.472656 17.425781 L 22.394531 17.425781 Z M 22.394531 16.039062 " clip-rule="nonzero"/></clipPath><clipPath id="id6"><path d="M 22.910156 16.15625 C 23.316406 16.433594 23.855469 16.59375 24.433594 16.59375 C 25.011719 16.59375 25.550781 16.433594 25.957031 16.15625 C 26.078125 16.074219 26.234375 16.195312 26.175781 16.324219 C 25.882812 16.984375 25.199219 17.425781 24.433594 17.425781 C 23.667969 17.425781 22.984375 16.984375 22.691406 16.324219 C 22.632812 16.195312 22.789062 16.074219 22.910156 16.15625 Z M 22.910156 16.15625 " clip-rule="nonzero"/></clipPath><clipPath id="id7"><path d="M 26.179688 13.261719 L 28.507812 13.261719 L 28.507812 14.648438 L 26.179688 14.648438 Z M 26.179688 13.261719 " clip-rule="nonzero"/></clipPath><clipPath id="id8"><path d="M 26.1875 14.1875 C 26.398438 13.636719 26.921875 13.261719 27.515625 13.261719 C 27.871094 13.261719 28.203125 13.394531 28.460938 13.628906 C 28.570312 13.726562 28.472656 13.898438 28.328125 13.863281 C 28.15625 13.820312 27.980469 13.800781 27.800781 13.800781 C 27.253906 13.800781 26.75 14 26.433594 14.328125 C 26.324219 14.4375 26.132812 14.328125 26.1875 14.1875 Z M 26.1875 14.1875 " clip-rule="nonzero"/></clipPath><clipPath id="id9"><path d="M 20.066406 11.597656 L 22.105469 11.597656 L 22.105469 12.984375 L 20.066406 12.984375 Z M 20.066406 11.597656 " clip-rule="nonzero"/></clipPath><clipPath id="id10"><path d="M 20.351562 12.890625 C 20.328125 12.960938 20.246094 13 20.167969 12.980469 C 20.09375 12.957031 20.050781 12.878906 20.074219 12.804688 C 20.34375 11.996094 21.15625 11.597656 21.960938 11.597656 C 22.039062 11.597656 22.105469 11.660156 22.105469 11.738281 C 22.105469 11.8125 22.039062 11.875 21.960938 11.875 C 21.273438 11.875 20.574219 12.214844 20.351562 12.890625 Z M 20.351562 12.890625 " clip-rule="nonzero"/></clipPath><clipPath id="id11"><path d="M 26.179688 12.429688 L 28.800781 12.429688 L 28.800781 12.984375 L 26.179688 12.984375 Z M 26.179688 12.429688 " clip-rule="nonzero"/></clipPath><clipPath id="id12"><path d="M 28.589844 12.972656 C 28.660156 13.003906 28.75 12.976562 28.785156 12.910156 C 28.820312 12.839844 28.789062 12.757812 28.71875 12.722656 C 27.902344 12.332031 27.078125 12.332031 26.261719 12.722656 C 26.1875 12.757812 26.160156 12.839844 26.195312 12.910156 C 26.230469 12.976562 26.320312 13.003906 26.390625 12.972656 C 27.125 12.621094 27.851562 12.621094 28.589844 12.972656 Z M 28.589844 12.972656 " clip-rule="nonzero"/></clipPath><clipPath id="id13"><path d="M 20.941406 12.707031 L 22.105469 12.707031 L 22.105469 14.371094 L 20.941406 14.371094 Z M 20.941406 12.707031 " clip-rule="nonzero"/></clipPath><clipPath id="id14"><path d="M 21.523438 14.371094 C 21.84375 14.371094 22.105469 14 22.105469 13.539062 C 22.105469 13.082031 21.84375 12.707031 21.523438 12.707031 C 21.199219 12.707031 20.941406 13.082031 20.941406 13.539062 C 20.941406 14 21.199219 14.371094 21.523438 14.371094 Z M 21.523438 14.371094 " clip-rule="nonzero"/></clipPath></defs><g fill="#ff784a" fill-opacity="1"><g transform="translate(36.127611, 19.177114)"><g><path d="M 4.921875 -2.046875 C 5.140625 -2.046875 5.375 -2.066406 5.625 -2.109375 C 5.882812 -2.148438 6.082031 -2.210938 6.21875 -2.296875 L 6.21875 -3.8125 L 4.84375 -3.6875 C 4.488281 -3.664062 4.195312 -3.59375 3.96875 -3.46875 C 3.75 -3.34375 3.640625 -3.148438 3.640625 -2.890625 C 3.640625 -2.640625 3.734375 -2.4375 3.921875 -2.28125 C 4.117188 -2.125 4.453125 -2.046875 4.921875 -2.046875 Z M 4.765625 -9.484375 C 5.453125 -9.484375 6.078125 -9.414062 6.640625 -9.28125 C 7.203125 -9.144531 7.679688 -8.929688 8.078125 -8.640625 C 8.472656 -8.359375 8.773438 -8 8.984375 -7.5625 C 9.203125 -7.125 9.3125 -6.609375 9.3125 -6.015625 L 9.3125 -1.78125 C 9.3125 -1.445312 9.21875 -1.175781 9.03125 -0.96875 C 8.851562 -0.757812 8.640625 -0.582031 8.390625 -0.4375 C 7.566406 0.0507812 6.410156 0.296875 4.921875 0.296875 C 4.253906 0.296875 3.648438 0.234375 3.109375 0.109375 C 2.578125 -0.015625 2.117188 -0.203125 1.734375 -0.453125 C 1.347656 -0.703125 1.050781 -1.019531 0.84375 -1.40625 C 0.632812 -1.800781 0.53125 -2.257812 0.53125 -2.78125 C 0.53125 -3.65625 0.785156 -4.320312 1.296875 -4.78125 C 1.816406 -5.25 2.625 -5.539062 3.71875 -5.65625 L 6.1875 -5.921875 L 6.1875 -6.0625 C 6.1875 -6.425781 6.023438 -6.6875 5.703125 -6.84375 C 5.390625 -7 4.925781 -7.078125 4.3125 -7.078125 C 3.832031 -7.078125 3.363281 -7.023438 2.90625 -6.921875 C 2.457031 -6.828125 2.050781 -6.703125 1.6875 -6.546875 C 1.519531 -6.660156 1.378906 -6.832031 1.265625 -7.0625 C 1.148438 -7.300781 1.09375 -7.546875 1.09375 -7.796875 C 1.09375 -8.128906 1.171875 -8.390625 1.328125 -8.578125 C 1.492188 -8.773438 1.738281 -8.945312 2.0625 -9.09375 C 2.425781 -9.226562 2.859375 -9.328125 3.359375 -9.390625 C 3.859375 -9.453125 4.328125 -9.484375 4.765625 -9.484375 Z M 4.765625 -9.484375 "/></g></g></g><g fill="#ff784a" fill-opacity="1"><g transform="translate(46.430139, 19.177114)"><g/></g></g><g fill="#ff784a" fill-opacity="1"><g transform="translate(50.217834, 19.177114)"><g><path d="M 4.203125 -3.15625 C 4.203125 -2.832031 4.304688 -2.597656 4.515625 -2.453125 C 4.722656 -2.316406 5.015625 -2.25 5.390625 -2.25 C 5.585938 -2.25 5.785156 -2.265625 5.984375 -2.296875 C 6.179688 -2.328125 6.359375 -2.367188 6.515625 -2.421875 C 6.628906 -2.285156 6.726562 -2.128906 6.8125 -1.953125 C 6.894531 -1.785156 6.9375 -1.582031 6.9375 -1.34375 C 6.9375 -0.863281 6.753906 -0.472656 6.390625 -0.171875 C 6.035156 0.128906 5.398438 0.28125 4.484375 0.28125 C 3.378906 0.28125 2.523438 0.03125 1.921875 -0.46875 C 1.316406 -0.976562 1.015625 -1.800781 1.015625 -2.9375 L 1.015625 -11.046875 C 1.160156 -11.078125 1.359375 -11.113281 1.609375 -11.15625 C 1.867188 -11.207031 2.144531 -11.234375 2.4375 -11.234375 C 3 -11.234375 3.429688 -11.132812 3.734375 -10.9375 C 4.046875 -10.738281 4.203125 -10.328125 4.203125 -9.703125 L 4.203125 -8.484375 L 6.6875 -8.484375 C 6.757812 -8.347656 6.828125 -8.175781 6.890625 -7.96875 C 6.960938 -7.757812 7 -7.523438 7 -7.265625 C 7 -6.828125 6.898438 -6.507812 6.703125 -6.3125 C 6.515625 -6.113281 6.253906 -6.015625 5.921875 -6.015625 L 4.203125 -6.015625 Z M 4.203125 -3.15625 "/></g></g></g><g fill="#ff784a" fill-opacity="1"><g transform="translate(57.793217, 19.177114)"><g><path d="M 0.984375 -9.078125 C 1.109375 -9.109375 1.304688 -9.140625 1.578125 -9.171875 C 1.847656 -9.210938 2.128906 -9.234375 2.421875 -9.234375 C 2.703125 -9.234375 2.953125 -9.210938 3.171875 -9.171875 C 3.390625 -9.140625 3.570312 -9.066406 3.71875 -8.953125 C 3.875 -8.835938 3.992188 -8.679688 4.078125 -8.484375 C 4.160156 -8.296875 4.203125 -8.039062 4.203125 -7.71875 L 4.203125 -3.65625 C 4.203125 -3.132812 4.328125 -2.765625 4.578125 -2.546875 C 4.835938 -2.328125 5.207031 -2.21875 5.6875 -2.21875 C 5.96875 -2.21875 6.203125 -2.242188 6.390625 -2.296875 C 6.578125 -2.347656 6.71875 -2.394531 6.8125 -2.4375 L 6.8125 -9.078125 C 6.9375 -9.109375 7.132812 -9.140625 7.40625 -9.171875 C 7.6875 -9.210938 7.96875 -9.234375 8.25 -9.234375 C 8.53125 -9.234375 8.78125 -9.210938 9 -9.171875 C 9.226562 -9.140625 9.414062 -9.066406 9.5625 -8.953125 C 9.71875 -8.835938 9.832031 -8.679688 9.90625 -8.484375 C 9.988281 -8.296875 10.03125 -8.039062 10.03125 -7.71875 L 10.03125 -1.96875 C 10.03125 -1.332031 9.765625 -0.859375 9.234375 -0.546875 C 8.796875 -0.265625 8.269531 -0.0546875 7.65625 0.078125 C 7.039062 0.222656 6.375 0.296875 5.65625 0.296875 C 4.976562 0.296875 4.351562 0.21875 3.78125 0.0625 C 3.207031 -0.0820312 2.710938 -0.3125 2.296875 -0.625 C 1.878906 -0.9375 1.554688 -1.34375 1.328125 -1.84375 C 1.097656 -2.34375 0.984375 -2.945312 0.984375 -3.65625 Z M 0.984375 -9.078125 "/></g></g></g><g fill="#ff784a" fill-opacity="1"><g transform="translate(68.8154, 19.177114)"><g/></g></g><g fill="#ff784a" fill-opacity="1"><g transform="translate(72.603096, 19.177114)"><g><path d="M 5.390625 -9.484375 C 5.910156 -9.484375 6.421875 -9.410156 6.921875 -9.265625 C 7.421875 -9.117188 7.851562 -8.898438 8.21875 -8.609375 C 8.59375 -8.867188 9.015625 -9.078125 9.484375 -9.234375 C 9.960938 -9.398438 10.539062 -9.484375 11.21875 -9.484375 C 11.695312 -9.484375 12.164062 -9.421875 12.625 -9.296875 C 13.082031 -9.171875 13.488281 -8.972656 13.84375 -8.703125 C 14.207031 -8.429688 14.492188 -8.070312 14.703125 -7.625 C 14.921875 -7.175781 15.03125 -6.628906 15.03125 -5.984375 L 15.03125 -0.015625 C 14.90625 0.015625 14.707031 0.0507812 14.4375 0.09375 C 14.164062 0.132812 13.882812 0.15625 13.59375 0.15625 C 13.320312 0.15625 13.070312 0.132812 12.84375 0.09375 C 12.625 0.0507812 12.4375 -0.0195312 12.28125 -0.125 C 12.132812 -0.238281 12.019531 -0.394531 11.9375 -0.59375 C 11.851562 -0.789062 11.8125 -1.046875 11.8125 -1.359375 L 11.8125 -5.890625 C 11.8125 -6.265625 11.703125 -6.535156 11.484375 -6.703125 C 11.273438 -6.878906 10.988281 -6.96875 10.625 -6.96875 C 10.445312 -6.96875 10.253906 -6.925781 10.046875 -6.84375 C 9.847656 -6.757812 9.695312 -6.675781 9.59375 -6.59375 C 9.613281 -6.539062 9.625 -6.488281 9.625 -6.4375 C 9.625 -6.394531 9.625 -6.359375 9.625 -6.328125 L 9.625 -0.015625 C 9.476562 0.015625 9.269531 0.0507812 9 0.09375 C 8.726562 0.132812 8.457031 0.15625 8.1875 0.15625 C 7.90625 0.15625 7.65625 0.132812 7.4375 0.09375 C 7.21875 0.0507812 7.03125 -0.0195312 6.875 -0.125 C 6.71875 -0.238281 6.597656 -0.394531 6.515625 -0.59375 C 6.441406 -0.789062 6.40625 -1.046875 6.40625 -1.359375 L 6.40625 -5.890625 C 6.40625 -6.265625 6.285156 -6.535156 6.046875 -6.703125 C 5.816406 -6.878906 5.535156 -6.96875 5.203125 -6.96875 C 4.972656 -6.96875 4.773438 -6.929688 4.609375 -6.859375 C 4.453125 -6.796875 4.316406 -6.734375 4.203125 -6.671875 L 4.203125 -0.015625 C 4.078125 0.015625 3.878906 0.0507812 3.609375 0.09375 C 3.335938 0.132812 3.054688 0.15625 2.765625 0.15625 C 2.484375 0.15625 2.234375 0.132812 2.015625 0.09375 C 1.796875 0.0507812 1.609375 -0.0195312 1.453125 -0.125 C 1.304688 -0.238281 1.191406 -0.394531 1.109375 -0.59375 C 1.023438 -0.789062 0.984375 -1.046875 0.984375 -1.359375 L 0.984375 -7.078125 C 0.984375 -7.421875 1.054688 -7.691406 1.203125 -7.890625 C 1.347656 -8.097656 1.546875 -8.289062 1.796875 -8.46875 C 2.222656 -8.769531 2.753906 -9.015625 3.390625 -9.203125 C 4.035156 -9.390625 4.703125 -9.484375 5.390625 -9.484375 Z M 5.390625 -9.484375 "/></g></g></g><g fill="#ff784a" fill-opacity="1"><g transform="translate(88.625036, 19.177114)"><g><path d="M 5.859375 0.296875 C 5.109375 0.296875 4.414062 0.191406 3.78125 -0.015625 C 3.144531 -0.222656 2.585938 -0.535156 2.109375 -0.953125 C 1.640625 -1.367188 1.269531 -1.890625 1 -2.515625 C 0.726562 -3.148438 0.59375 -3.890625 0.59375 -4.734375 C 0.59375 -5.566406 0.726562 -6.28125 1 -6.875 C 1.269531 -7.476562 1.625 -7.972656 2.0625 -8.359375 C 2.507812 -8.742188 3.015625 -9.023438 3.578125 -9.203125 C 4.148438 -9.390625 4.734375 -9.484375 5.328125 -9.484375 C 5.992188 -9.484375 6.597656 -9.378906 7.140625 -9.171875 C 7.691406 -8.972656 8.164062 -8.695312 8.5625 -8.34375 C 8.96875 -8 9.28125 -7.578125 9.5 -7.078125 C 9.71875 -6.585938 9.828125 -6.050781 9.828125 -5.46875 C 9.828125 -5.039062 9.707031 -4.710938 9.46875 -4.484375 C 9.226562 -4.253906 8.894531 -4.109375 8.46875 -4.046875 L 3.78125 -3.359375 C 3.925781 -2.941406 4.210938 -2.628906 4.640625 -2.421875 C 5.066406 -2.210938 5.554688 -2.109375 6.109375 -2.109375 C 6.628906 -2.109375 7.117188 -2.171875 7.578125 -2.296875 C 8.046875 -2.429688 8.425781 -2.585938 8.71875 -2.765625 C 8.914062 -2.640625 9.082031 -2.460938 9.21875 -2.234375 C 9.363281 -2.003906 9.4375 -1.765625 9.4375 -1.515625 C 9.4375 -0.941406 9.171875 -0.519531 8.640625 -0.25 C 8.234375 -0.03125 7.773438 0.113281 7.265625 0.1875 C 6.765625 0.257812 6.296875 0.296875 5.859375 0.296875 Z M 5.328125 -7.140625 C 5.015625 -7.140625 4.75 -7.085938 4.53125 -6.984375 C 4.3125 -6.890625 4.128906 -6.757812 3.984375 -6.59375 C 3.847656 -6.4375 3.742188 -6.257812 3.671875 -6.0625 C 3.609375 -5.875 3.570312 -5.675781 3.5625 -5.46875 L 6.796875 -6 C 6.753906 -6.25 6.613281 -6.5 6.375 -6.75 C 6.132812 -7.007812 5.785156 -7.140625 5.328125 -7.140625 Z M 5.328125 -7.140625 "/></g></g></g><g fill="#ff784a" fill-opacity="1"><g transform="translate(99.022252, 19.177114)"><g><path d="M 8.75 -2.75 C 8.75 -1.789062 8.390625 -1.035156 7.671875 -0.484375 C 6.953125 0.0546875 5.890625 0.328125 4.484375 0.328125 C 3.953125 0.328125 3.457031 0.285156 3 0.203125 C 2.550781 0.128906 2.164062 0.015625 1.84375 -0.140625 C 1.519531 -0.296875 1.265625 -0.492188 1.078125 -0.734375 C 0.898438 -0.972656 0.8125 -1.257812 0.8125 -1.59375 C 0.8125 -1.894531 0.875 -2.148438 1 -2.359375 C 1.125 -2.566406 1.273438 -2.738281 1.453125 -2.875 C 1.816406 -2.675781 2.234375 -2.5 2.703125 -2.34375 C 3.179688 -2.1875 3.734375 -2.109375 4.359375 -2.109375 C 4.742188 -2.109375 5.039062 -2.160156 5.25 -2.265625 C 5.457031 -2.378906 5.5625 -2.535156 5.5625 -2.734375 C 5.5625 -2.898438 5.484375 -3.035156 5.328125 -3.140625 C 5.179688 -3.242188 4.929688 -3.328125 4.578125 -3.390625 L 4.015625 -3.5 C 2.921875 -3.71875 2.101562 -4.054688 1.5625 -4.515625 C 1.019531 -4.972656 0.75 -5.632812 0.75 -6.5 C 0.75 -6.96875 0.847656 -7.390625 1.046875 -7.765625 C 1.253906 -8.140625 1.539062 -8.453125 1.90625 -8.703125 C 2.28125 -8.960938 2.722656 -9.160156 3.234375 -9.296875 C 3.742188 -9.429688 4.304688 -9.5 4.921875 -9.5 C 5.390625 -9.5 5.828125 -9.460938 6.234375 -9.390625 C 6.648438 -9.328125 7.007812 -9.222656 7.3125 -9.078125 C 7.613281 -8.941406 7.851562 -8.765625 8.03125 -8.546875 C 8.207031 -8.328125 8.296875 -8.066406 8.296875 -7.765625 C 8.296875 -7.472656 8.238281 -7.222656 8.125 -7.015625 C 8.019531 -6.804688 7.882812 -6.632812 7.71875 -6.5 C 7.625 -6.5625 7.472656 -6.625 7.265625 -6.6875 C 7.066406 -6.757812 6.847656 -6.820312 6.609375 -6.875 C 6.367188 -6.9375 6.125 -6.984375 5.875 -7.015625 C 5.632812 -7.054688 5.410156 -7.078125 5.203125 -7.078125 C 4.785156 -7.078125 4.460938 -7.03125 4.234375 -6.9375 C 4.015625 -6.84375 3.90625 -6.695312 3.90625 -6.5 C 3.90625 -6.351562 3.96875 -6.234375 4.09375 -6.140625 C 4.21875 -6.054688 4.457031 -5.976562 4.8125 -5.90625 L 5.390625 -5.78125 C 6.609375 -5.5 7.472656 -5.113281 7.984375 -4.625 C 8.492188 -4.144531 8.75 -3.519531 8.75 -2.75 Z M 8.75 -2.75 "/></g></g></g><g fill="#ff784a" fill-opacity="1"><g transform="translate(108.339976, 19.177114)"><g><path d="M 4.921875 -2.046875 C 5.140625 -2.046875 5.375 -2.066406 5.625 -2.109375 C 5.882812 -2.148438 6.082031 -2.210938 6.21875 -2.296875 L 6.21875 -3.8125 L 4.84375 -3.6875 C 4.488281 -3.664062 4.195312 -3.59375 3.96875 -3.46875 C 3.75 -3.34375 3.640625 -3.148438 3.640625 -2.890625 C 3.640625 -2.640625 3.734375 -2.4375 3.921875 -2.28125 C 4.117188 -2.125 4.453125 -2.046875 4.921875 -2.046875 Z M 4.765625 -9.484375 C 5.453125 -9.484375 6.078125 -9.414062 6.640625 -9.28125 C 7.203125 -9.144531 7.679688 -8.929688 8.078125 -8.640625 C 8.472656 -8.359375 8.773438 -8 8.984375 -7.5625 C 9.203125 -7.125 9.3125 -6.609375 9.3125 -6.015625 L 9.3125 -1.78125 C 9.3125 -1.445312 9.21875 -1.175781 9.03125 -0.96875 C 8.851562 -0.757812 8.640625 -0.582031 8.390625 -0.4375 C 7.566406 0.0507812 6.410156 0.296875 4.921875 0.296875 C 4.253906 0.296875 3.648438 0.234375 3.109375 0.109375 C 2.578125 -0.015625 2.117188 -0.203125 1.734375 -0.453125 C 1.347656 -0.703125 1.050781 -1.019531 0.84375 -1.40625 C 0.632812 -1.800781 0.53125 -2.257812 0.53125 -2.78125 C 0.53125 -3.65625 0.785156 -4.320312 1.296875 -4.78125 C 1.816406 -5.25 2.625 -5.539062 3.71875 -5.65625 L 6.1875 -5.921875 L 6.1875 -6.0625 C 6.1875 -6.425781 6.023438 -6.6875 5.703125 -6.84375 C 5.390625 -7 4.925781 -7.078125 4.3125 -7.078125 C 3.832031 -7.078125 3.363281 -7.023438 2.90625 -6.921875 C 2.457031 -6.828125 2.050781 -6.703125 1.6875 -6.546875 C 1.519531 -6.660156 1.378906 -6.832031 1.265625 -7.0625 C 1.148438 -7.300781 1.09375 -7.546875 1.09375 -7.796875 C 1.09375 -8.128906 1.171875 -8.390625 1.328125 -8.578125 C 1.492188 -8.773438 1.738281 -8.945312 2.0625 -9.09375 C 2.425781 -9.226562 2.859375 -9.328125 3.359375 -9.390625 C 3.859375 -9.453125 4.328125 -9.484375 4.765625 -9.484375 Z M 4.765625 -9.484375 "/></g></g></g><g clip-path="url(#id1)"><path fill="#ff784a" d="M 32.351562 14.511719 C 32.351562 15.035156 32.296875 15.558594 32.195312 16.074219 C 32.09375 16.589844 31.941406 17.089844 31.738281 17.578125 C 31.539062 18.0625 31.292969 18.523438 31 18.960938 C 30.707031 19.398438 30.375 19.804688 30.003906 20.175781 C 29.632812 20.546875 29.226562 20.878906 28.789062 21.171875 C 28.351562 21.464844 27.890625 21.710938 27.402344 21.914062 C 26.917969 22.113281 26.417969 22.265625 25.902344 22.367188 C 25.386719 22.472656 24.863281 22.523438 24.339844 22.523438 C 23.8125 22.523438 23.289062 22.472656 22.773438 22.367188 C 22.257812 22.265625 21.757812 22.113281 21.273438 21.914062 C 20.785156 21.710938 20.324219 21.464844 19.886719 21.171875 C 19.449219 20.878906 19.042969 20.546875 18.671875 20.175781 C 18.300781 19.804688 17.96875 19.398438 17.675781 18.960938 C 17.382812 18.523438 17.136719 18.0625 16.9375 17.578125 C 16.734375 17.089844 16.582031 16.589844 16.480469 16.074219 C 16.378906 15.558594 16.324219 15.035156 16.324219 14.511719 C 16.324219 13.984375 16.378906 13.464844 16.480469 12.945312 C 16.582031 12.429688 16.734375 11.929688 16.9375 11.445312 C 17.136719 10.957031 17.382812 10.496094 17.675781 10.058594 C 17.96875 9.621094 18.300781 9.21875 18.671875 8.84375 C 19.042969 8.472656 19.449219 8.140625 19.886719 7.847656 C 20.324219 7.554688 20.785156 7.308594 21.273438 7.109375 C 21.757812 6.90625 22.257812 6.753906 22.773438 6.652344 C 23.289062 6.550781 23.8125 6.5 24.339844 6.5 C 24.863281 6.5 25.386719 6.550781 25.902344 6.652344 C 26.417969 6.753906 26.917969 6.90625 27.402344 7.109375 C 27.890625 7.308594 28.351562 7.554688 28.789062 7.847656 C 29.226562 8.140625 29.632812 8.472656 30.003906 8.84375 C 30.375 9.21875 30.707031 9.621094 31 10.058594 C 31.292969 10.496094 31.539062 10.957031 31.738281 11.445312 C 31.941406 11.929688 32.09375 12.429688 32.195312 12.945312 C 32.296875 13.464844 32.351562 13.984375 32.351562 14.511719 Z M 32.351562 14.511719 " fill-opacity="1" fill-rule="nonzero"/></g><g clip-path="url(#id2)"><g clip-path="url(#id3)"><g clip-path="url(#id4)"><path fill="#ffffff" d="M 30 14.5 C 29.890625 17.199219 27.730469 19.453125 24.964844 19.640625 C 22.035156 19.839844 19.539062 17.636719 19.386719 14.722656 C 19.300781 13.066406 19.992188 11.535156 21.148438 10.484375 C 21.832031 10.128906 22.023438 10.308594 22.320312 10.332031 C 23.027344 10.390625 22.789062 11.433594 24.484375 11.019531 C 25.417969 10.792969 26.464844 10.222656 27.574219 9.679688 C 27.785156 9.578125 27.878906 9.3125 27.890625 8.992188 C 27.890625 8.992188 24.679688 10.117188 24.320312 10.222656 C 23.960938 10.332031 23.863281 9.734375 24.125 9.644531 C 24.390625 9.550781 27.832031 8.363281 27.832031 8.363281 L 27.664062 7.859375 C 27.664062 7.859375 24.238281 8.992188 23.941406 9.09375 C 23.648438 9.191406 23.53125 8.585938 23.75 8.511719 C 23.964844 8.4375 27.390625 7.253906 27.390625 7.253906 C 27.199219 6.972656 26.964844 6.804688 26.695312 6.855469 C 25.511719 7.082031 24.398438 7.296875 23.511719 7.605469 C 22.175781 8.0625 22.683594 8.832031 22.1875 9.320312 C 19.816406 10.199219 18.179688 12.539062 18.316406 15.164062 C 18.480469 18.371094 21.230469 20.792969 24.457031 20.574219 C 27.640625 20.359375 30.097656 17.652344 30 14.5 " fill-opacity="1" fill-rule="nonzero"/></g></g></g><g clip-path="url(#id5)"><g clip-path="url(#id6)"><path fill="#ffffff" d="M 21.222656 18.8125 L 27.644531 18.8125 L 27.644531 14.742188 L 21.222656 14.742188 Z M 21.222656 18.8125 " fill-opacity="1" fill-rule="nonzero"/></g></g><g clip-path="url(#id7)"><g clip-path="url(#id8)"><path fill="#ffffff" d="M 24.722656 15.761719 L 29.964844 15.761719 L 29.964844 11.875 L 24.722656 11.875 Z M 24.722656 15.761719 " fill-opacity="1" fill-rule="nonzero"/></g></g><g clip-path="url(#id9)"><g clip-path="url(#id10)"><path fill="#ffffff" d="M 18.613281 14.371094 L 23.558594 14.371094 L 23.558594 10.210938 L 18.613281 10.210938 Z M 18.613281 14.371094 " fill-opacity="1" fill-rule="nonzero"/></g></g><g clip-path="url(#id11)"><g clip-path="url(#id12)"><path fill="#ffffff" d="M 24.722656 14.371094 L 30.253906 14.371094 L 30.253906 11.042969 L 24.722656 11.042969 Z M 24.722656 14.371094 " fill-opacity="1" fill-rule="nonzero"/></g></g><g clip-path="url(#id13)"><g clip-path="url(#id14)"><path fill="#ffffff" d="M 19.484375 15.761719 L 23.558594 15.761719 L 23.558594 11.320312 L 19.484375 11.320312 Z M 19.484375 15.761719 " fill-opacity="1" fill-rule="nonzero"/></g></g></svg>